<svg id="Layer_1" data-name="Layer 1" xmlns="http://www.w3.org/2000/svg" viewBox="0 0 188.25 110.33"><defs><style>.cls-1{fill:#333;}</style></defs><title>logotype_name_below-vector</title><path class="cls-1" d="M76.86,70.7,86.09,57a1.58,1.58,0,0,0,.28-.92V1.65A1.64,1.64,0,0,0,84.73,0h-7.5a1.66,1.66,0,0,0-1.36.72L48.81,40.56a1.64,1.64,0,0,1-2.72,0L19,.73A1.63,1.63,0,0,0,17.67,0H9.92A1.65,1.65,0,0,0,8.28,1.65V86a1.64,1.64,0,0,0,1.64,1.64h9.36A1.64,1.64,0,0,0,20.92,86V31.3a1.65,1.65,0,0,1,3-.92l19.4,28.85A1.67,1.67,0,0,0,44.7,60h5.38a1.64,1.64,0,0,0,1.36-.73L70.85,30.38a1.65,1.65,0,0,1,3,.92V69.79A1.64,1.64,0,0,0,76.86,70.7Z"/><path class="cls-1" d="M159.73,0H146.82a1.64,1.64,0,0,0-1.64,1.64v9.48a1.64,1.64,0,0,0,1.64,1.65h12.91c10.64,0,15.89,8.26,15.89,16.64s-5.25,16.52-15.89,16.52H146.82a1.64,1.64,0,0,0-1.64,1.64V56.8a1.63,1.63,0,0,0,1.64,1.64h12.91c18.9,0,28.41-14.51,28.41-29.16S178.63,0,159.73,0Z"/><path class="cls-1" d="M130,.72,72.88,85a1.64,1.64,0,0,0,1.36,2.56H85.51a1.63,1.63,0,0,0,1.36-.72l38.06-56.51a1.65,1.65,0,0,1,3,.92V54.5a1.63,1.63,0,0,1-1.64,1.64H114.1a1.62,1.62,0,0,0-1.36.73l-6.31,9.34a1.64,1.64,0,0,0,1.36,2.56H126.3a1.64,1.64,0,0,1,1.64,1.65V86a1.64,1.64,0,0,0,1.64,1.64h9.23A1.64,1.64,0,0,0,140.46,86V1.64A1.65,1.65,0,0,0,138.81,0h-7.49A1.63,1.63,0,0,0,130,.72Z"/><path class="cls-1" d="M3.2,91.55l6.14,15.32,6.13-15.32h3.22v18.78H16.21V103l.23-7.9-6.16,15.21H8.38L2.23,95.16,2.48,103v7.31H0V91.55Z"/><path class="cls-1" d="M33.61,105.41H25.74L24,110.33H21.42l7.17-18.78h2.17l7.18,18.78H35.4Zm-7.12-2h6.39l-3.2-8.78Z"/><path class="cls-1" d="M47.54,102.73H43.13v7.6H40.64V91.55h6.22A7.33,7.33,0,0,1,51.74,93a5.18,5.18,0,0,1,1.71,4.2,5.08,5.08,0,0,1-1,3.06,5.68,5.68,0,0,1-2.64,1.94l4.41,8v.16H51.62Zm-4.41-2h3.81a4.27,4.27,0,0,0,2.93-1A3.23,3.23,0,0,0,51,97.19a3.41,3.41,0,0,0-1-2.67,4.35,4.35,0,0,0-3-.94H43.13Z"/><path class="cls-1" d="M70.91,104.37a6.87,6.87,0,0,1-2.2,4.6,7.18,7.18,0,0,1-4.92,1.61,6.62,6.62,0,0,1-5.33-2.38,9.63,9.63,0,0,1-2-6.38V100a10.73,10.73,0,0,1,.93-4.6,7,7,0,0,1,2.65-3,7.4,7.4,0,0,1,4-1.07A6.79,6.79,0,0,1,68.81,93a7,7,0,0,1,2.1,4.63H68.42A5.4,5.4,0,0,0,67,94.33a4.23,4.23,0,0,0-3-1,4.43,4.43,0,0,0-3.72,1.75,8.13,8.13,0,0,0-1.34,5v1.82a8.26,8.26,0,0,0,1.27,4.86,4.11,4.11,0,0,0,3.57,1.81,4.78,4.78,0,0,0,3.17-.93,5.18,5.18,0,0,0,1.46-3.26Z"/><path class="cls-1" d="M88.92,101.54a11.61,11.61,0,0,1-.93,4.82,7,7,0,0,1-2.63,3.14,7.26,7.26,0,0,1-10.57-3.11,11.26,11.26,0,0,1-1-4.68v-1.35a11.47,11.47,0,0,1,.94-4.79,7.21,7.21,0,0,1,2.66-3.17,7.11,7.11,0,0,1,3.94-1.11,7.33,7.33,0,0,1,4,1.09A7,7,0,0,1,88,95.54a11.68,11.68,0,0,1,.93,4.82Zm-2.46-1.21a8.44,8.44,0,0,0-1.34-5.12,4.45,4.45,0,0,0-3.76-1.79,4.38,4.38,0,0,0-3.69,1.79,8.26,8.26,0,0,0-1.39,5v1.37a8.48,8.48,0,0,0,1.36,5.09,4.77,4.77,0,0,0,7.46.11,8.41,8.41,0,0,0,1.36-5Z"/><path class="cls-1" d="M94.82,113.81H92.9V91.55h1.92Z"/><path class="cls-1" d="M101.92,103v7.35H99.44V91.55h6.92a7,7,0,0,1,4.83,1.57,5.33,5.33,0,0,1,1.75,4.17,5.26,5.26,0,0,1-1.71,4.21,7.29,7.29,0,0,1-4.89,1.48Zm0-2h4.44a4.49,4.49,0,0,0,3-.93,3.45,3.45,0,0,0,1-2.71,3.55,3.55,0,0,0-1-2.69,4.15,4.15,0,0,0-2.9-1h-4.59Z"/><path class="cls-1" d="M124.69,105.41h-7.87l-1.76,4.92H112.5l7.17-18.78h2.17L129,110.33h-2.54Zm-7.12-2H124l-3.19-8.78Z"/><path class="cls-1" d="M145.41,107.86a5.62,5.62,0,0,1-2.66,2,10.81,10.81,0,0,1-4,.67,7.66,7.66,0,0,1-4.07-1.07,7.2,7.2,0,0,1-2.76-3.06,10.64,10.64,0,0,1-1-4.61V100.2a9.86,9.86,0,0,1,2-6.57,6.9,6.9,0,0,1,5.57-2.34,7.07,7.07,0,0,1,4.73,1.51,6.48,6.48,0,0,1,2.19,4.26h-2.47a4.1,4.1,0,0,0-4.44-3.74,4.36,4.36,0,0,0-3.77,1.75,8.49,8.49,0,0,0-1.3,5.06v1.54a8,8,0,0,0,1.45,5,4.67,4.67,0,0,0,3.9,1.86,8.46,8.46,0,0,0,2.44-.31,3.72,3.72,0,0,0,1.73-1V103H138.6v-2h6.81Z"/><path class="cls-1" d="M159.91,105.41H152l-1.77,4.92h-2.55l7.17-18.78h2.17l7.18,18.78H161.7Zm-7.12-2h6.38L156,94.61Z"/><path class="cls-1" d="M181.2,110.33h-2.49l-9.45-14.47v14.47h-2.49V91.55h2.49l9.47,14.53V91.55h2.47Z"/><path class="cls-1" d="M188.25,110.33h-2.47V91.55h2.47Z"/></svg>