<svg xmlns="http://www.w3.org/2000/svg" viewBox="0 0 227.52 183.62"><defs><style>.cls-1{fill:#fbc334;}</style></defs><title>Asset 1</title><g id="Layer_2" data-name="Layer 2"><g id="Layer_1-2" data-name="Layer 1"><path class="cls-1" d="M17.17,26.76a.86.86,0,0,1,.61-.9c3.6-1.14,22.12-7,28.15-9.95C51.42,13.25,66.35,3.78,71.55.45A2.85,2.85,0,0,1,75,.75c1.84,1.69,4.63,4.53,5.36,6.79,1.12,3.46,1.45,5-.67,7.47S53.49,46.67,50.93,49.68,19.91,86.44,11.32,95c-1.17,1.16-2.64,2.36-5.09.13C4.27,93.32.8,88.81.08,86a2.8,2.8,0,0,1,.6-2.5L55.47,19.21a.24.24,0,0,0-.28-.37c-4.93,2.35-26.81,12.62-32.34,12.23C18.15,30.73,17.3,28.06,17.17,26.76Z"/><path class="cls-1" d="M119.13,91.45c-.4-.06,6.33-2.61,6.72-2.73,3.6-1.14,31.22-12.1,37.24-15,5.49-2.65,20.43-12.13,25.62-15.45a2.86,2.86,0,0,1,3.48.3c1.84,1.69,4.63,4.52,5.36,6.79,1.11,3.46,1.45,5-.67,7.47s-26.22,31.66-28.79,34.67-64.73,74.67-64.73,74.67-3.18,2.83-5.64.6a25.92,25.92,0,0,1-5.59-9.58,2.82,2.82,0,0,1,.59-2.49L172.63,77a.23.23,0,0,0-.27-.37c-4.94,2.36-43.11,20.87-48.64,20.47C119,96.77,120.69,91.68,119.13,91.45Z"/><path class="cls-1" d="M11.32,95c6.23-7.92,39.48-38.84,52.79-48.44s39.74-26.28,42.77-26.78c0,0,2-.17,1,1.85S91.56,43.66,86.67,48.55,57.3,80.24,56.51,81.93c-.46,1-1.18,5.39,1.17,8.42s4.72,7.08,7.08,6.74,31-34.55,36.9-41.38S117.1,36.37,118.16,28a17.22,17.22,0,0,0-2-9.89A10.83,10.83,0,0,0,106.82,13c-3.93,0-23.68,12.45-29.24,16.15s-44,33-47.16,36.38S11.32,95,11.32,95Z"/><path class="cls-1" d="M65.72,96.49C72,88.57,105,61.58,118.33,52s39.75-26.27,42.78-26.78c0,0,2-.17,1,1.85S145.78,49.11,140.9,54s-24.64,26.26-25.43,28c-.45,1-1.18,5.39,1.18,8.42s4.71,7.08,7.07,6.74S150,68,155.89,61.16s15.44-19.34,16.5-27.71a17.22,17.22,0,0,0-2-9.89A10.84,10.84,0,0,0,161,18.48c-3.92,0-23.68,12.45-29.23,16.15s-44,33-47.16,36.38S65.72,96.49,65.72,96.49Z"/><path class="cls-1" d="M168.09,107.49C173.15,104,187.89,90.5,197,88c4-1.1,13.55-2.43,17.44,2,3.74,4.25,3.32,10.23-2.12,17.17s-13.09,15.67-28,21-18.79,5.37-29.42,4c-2.69-.33-7.58,2.74-7.58,3.92,0,.67,7.93,6.33,11.87,8.08,6.78,3,16.67,2.91,22.61,1.64s20.59-6.19,30.44-15.28S226.1,114.21,227,110.1a23.59,23.59,0,0,0-7.46-23c-7.08-6.53-14.27-6.28-19.32-5.9s-14.32,5.6-17.18,7.07S168.09,107.49,168.09,107.49Z"/></g></g></svg>