<svg id="Layer_1" data-name="Layer 1" xmlns="http://www.w3.org/2000/svg" viewBox="0 0 179.86 87.6"><defs><style>.cls-1{fill:#333;}</style></defs><title>logotype-vector</title><path class="cls-1" d="M68.58,70.7,77.81,57a1.66,1.66,0,0,0,.28-.92V1.65A1.64,1.64,0,0,0,76.45,0H69a1.66,1.66,0,0,0-1.36.72L40.53,40.56a1.64,1.64,0,0,1-2.72,0L10.75.73A1.63,1.63,0,0,0,9.39,0H1.64A1.65,1.65,0,0,0,0,1.65V86a1.64,1.64,0,0,0,1.64,1.64H11A1.64,1.64,0,0,0,12.64,86V31.3a1.65,1.65,0,0,1,3-.92l19.4,28.85a1.67,1.67,0,0,0,1.37.73H41.8a1.64,1.64,0,0,0,1.36-.73L62.57,30.38a1.65,1.65,0,0,1,3,.92V69.79A1.64,1.64,0,0,0,68.58,70.7Z"/><path class="cls-1" d="M151.45,0H138.54a1.64,1.64,0,0,0-1.64,1.64v9.48a1.64,1.64,0,0,0,1.64,1.65h12.91c10.64,0,15.89,8.26,15.89,16.64s-5.25,16.52-15.89,16.52H138.54a1.64,1.64,0,0,0-1.64,1.64V56.8a1.63,1.63,0,0,0,1.64,1.64h12.91c18.9,0,28.41-14.51,28.41-29.16S170.35,0,151.45,0Z"/><path class="cls-1" d="M121.67.72,64.6,85A1.64,1.64,0,0,0,66,87.6H77.23a1.63,1.63,0,0,0,1.36-.72l38.06-56.51a1.65,1.65,0,0,1,3,.92V54.5A1.64,1.64,0,0,1,118,56.14h-12.2a1.62,1.62,0,0,0-1.36.73l-6.31,9.34a1.64,1.64,0,0,0,1.36,2.56H118a1.65,1.65,0,0,1,1.64,1.65V86a1.64,1.64,0,0,0,1.64,1.64h9.23A1.64,1.64,0,0,0,132.18,86V1.64A1.65,1.65,0,0,0,130.53,0H123A1.66,1.66,0,0,0,121.67.72Z"/></svg>