<svg id="Layer_1" data-name="Layer 1" xmlns="http://www.w3.org/2000/svg" viewBox="0 0 371 89.08"><defs><style>.cls-1{fill:#333;}</style></defs><title>logotype_name_side-vector</title><path class="cls-1" d="M69.93,72.08l9.41-13.95a1.63,1.63,0,0,0,.29-.93V1.68A1.68,1.68,0,0,0,78,0H70.3a1.69,1.69,0,0,0-1.38.73L41.33,41.35a1.69,1.69,0,0,1-2.78,0L11,.73A1.69,1.69,0,0,0,9.58,0H1.68A1.68,1.68,0,0,0,0,1.68v86a1.68,1.68,0,0,0,1.68,1.67h9.53a1.68,1.68,0,0,0,1.68-1.67V31.91A1.67,1.67,0,0,1,16,31L35.74,60.38a1.65,1.65,0,0,0,1.39.74h5.49A1.65,1.65,0,0,0,44,60.38L63.8,31a1.68,1.68,0,0,1,3.07.94V71.15A1.67,1.67,0,0,0,69.93,72.08Z"/><path class="cls-1" d="M154.42,0H141.26a1.68,1.68,0,0,0-1.67,1.68v9.66A1.68,1.68,0,0,0,141.26,13h13.16c10.85,0,16.21,8.42,16.21,17s-5.36,16.84-16.21,16.84H141.26a1.68,1.68,0,0,0-1.67,1.68v9.41a1.67,1.67,0,0,0,1.67,1.67h13.16c19.27,0,29-14.8,29-29.73S173.69,0,154.42,0Z"/><path class="cls-1" d="M124.06.73l-58.19,86a1.67,1.67,0,0,0,1.39,2.61H78.75a1.69,1.69,0,0,0,1.39-.73L119,31a1.67,1.67,0,0,1,3.06.93V55.56a1.68,1.68,0,0,1-1.68,1.67H107.9a1.68,1.68,0,0,0-1.39.74l-6.43,9.53a1.68,1.68,0,0,0,1.39,2.62h18.86A1.68,1.68,0,0,1,122,71.79V87.64a1.68,1.68,0,0,0,1.68,1.67h9.41a1.67,1.67,0,0,0,1.67-1.67v-86A1.68,1.68,0,0,0,133.1,0h-7.65A1.7,1.7,0,0,0,124.06.73Z"/><path class="cls-1" d="M197.09,1.88,209.54,33,222,1.88h6.51V40h-5V25.14l.47-16L211.45,40H207.6L195.13,9.2l.49,15.94V40h-5V1.88Z"/><path class="cls-1" d="M258.79,30h-16l-3.58,10h-5.19L248.61,1.88H253L267.58,40h-5.15Zm-14.44-4.11h13L250.81,8.08Z"/><path class="cls-1" d="M287.05,24.56H278.1V40h-5V1.88h12.61q6.43,0,9.9,2.93T299,13.34a10.27,10.27,0,0,1-1.92,6.2,11.44,11.44,0,0,1-5.35,3.95l8.95,16.17V40h-5.39Zm-8.95-4.11h7.72a8.65,8.65,0,0,0,5.95-1.94A6.54,6.54,0,0,0,294,13.32a6.91,6.91,0,0,0-2.11-5.42A8.93,8.93,0,0,0,285.8,6h-7.7Z"/><path class="cls-1" d="M334.47,27.88A14,14,0,0,1,330,37.21c-2.51,2.19-5.83,3.28-10,3.28a13.39,13.39,0,0,1-10.81-4.84q-4.06-4.83-4.07-12.95V19A21.78,21.78,0,0,1,307,9.7a14.2,14.2,0,0,1,5.38-6.19,15,15,0,0,1,8.06-2.16q6.06,0,9.73,3.39a14.2,14.2,0,0,1,4.27,9.38h-5.05c-.44-3-1.39-5.25-2.84-6.61a8.57,8.57,0,0,0-6.11-2A9,9,0,0,0,312.92,9c-1.82,2.38-2.73,5.75-2.73,10.14v3.69q0,6.21,2.59,9.87A8.38,8.38,0,0,0,320,36.39a9.69,9.69,0,0,0,6.43-1.9q2.24-1.91,3-6.61Z"/><path class="cls-1" d="M371,22.15a23.46,23.46,0,0,1-1.89,9.77,14.24,14.24,0,0,1-5.33,6.38,14.72,14.72,0,0,1-8.06,2.19A14.21,14.21,0,0,1,342.34,32a22.73,22.73,0,0,1-2-9.49V19.75A23.34,23.34,0,0,1,342.27,10a14.15,14.15,0,0,1,13.4-8.69,14.8,14.8,0,0,1,8.07,2.21A14.27,14.27,0,0,1,369.11,10,23.64,23.64,0,0,1,371,19.75Zm-5-2.46q0-6.77-2.72-10.4a9,9,0,0,0-7.61-3.62,8.89,8.89,0,0,0-7.5,3.62q-2.73,3.63-2.81,10.06v2.8q0,6.57,2.76,10.32a9.67,9.67,0,0,0,15.14.21q2.65-3.54,2.74-10.16Z"/><path class="cls-1" d="M195.62,74.17V89.08h-5V51h14.05q6.25,0,9.8,3.19A10.84,10.84,0,0,1,218,62.63q0,5.55-3.47,8.55t-9.92,3Zm0-4.11h9a9,9,0,0,0,6.17-1.9A6.93,6.93,0,0,0,213,62.67a7.19,7.19,0,0,0-2.15-5.45,8.45,8.45,0,0,0-5.88-2.12h-9.32Z"/><path class="cls-1" d="M241.83,79.12h-16l-3.59,10H217.1L231.65,51H236l14.58,38.09h-5.16ZM227.38,75h13l-6.49-17.82Z"/><path class="cls-1" d="M283.87,84.09a11.54,11.54,0,0,1-5.4,4.14,21.76,21.76,0,0,1-8.07,1.38,15.6,15.6,0,0,1-8.27-2.19,14.5,14.5,0,0,1-5.59-6.21,21.65,21.65,0,0,1-2-9.34V68.55q0-8.61,4-13.35t11.29-4.73q6,0,9.6,3.05a13.28,13.28,0,0,1,4.45,8.64h-5q-1.41-7.57-9-7.58a8.91,8.91,0,0,0-7.65,3.54q-2.6,3.56-2.63,10.28v3.12q0,6.41,2.93,10.2a9.52,9.52,0,0,0,7.93,3.78,17.46,17.46,0,0,0,4.95-.63,7.56,7.56,0,0,0,3.5-2.11V74.22h-8.81v-4.1h13.81Z"/><path class="cls-1" d="M313.27,79.12H297.32l-3.59,10h-5.18L303.1,51h4.39l14.58,38.09h-5.16ZM298.83,75h12.95L305.3,57.19Z"/><path class="cls-1" d="M356.47,89.08h-5.05L332.24,59.73V89.08h-5.05V51h5.05l19.23,29.49V51h5Z"/><path class="cls-1" d="M370.78,89.08h-5V51h5Z"/></svg>